<svg width="1134" height="893" viewBox="0 0 1134 893" fill="none" xmlns="http://www.w3.org/2000/svg">
<g clip-path="url(#clip0_3_12)">
<rect x="20" y="20" width="1094" height="853" rx="50" fill="white"/>
<rect x="20" y="51" width="1094" height="822" rx="50" fill="#C90000"/>
<rect x="20" y="20" width="1094" height="788" rx="50" fill="#FF4848"/>
<rect x="152" y="93" width="829" height="528" rx="20" fill="#C90000"/>
<g filter="url(#filter0_i_3_12)">
<rect x="152" y="105" width="829" height="516" rx="20" fill="#FEF2F2"/>
</g>
<g filter="url(#filter1_d_3_12)">
<circle cx="123" cy="708" r="71" fill="#D9D9D9"/>
</g>
<g filter="url(#filter2_d_3_12)">
<circle cx="1010" cy="708" r="71" fill="#D9D9D9"/>
</g>
<path d="M450.872 731.864V725.384H444.32V692.12H450.872V685.568H471.176V692.12H477.8V705.8H471.176V711.56H477.8V725.384H471.176V731.864H450.872ZM451.592 724.664H470.456V712.28H457.352V705.152H470.456V692.84H451.592V724.664ZM491.653 731.864V725.384H485.101V705.152H491.653V698.6H511.957V705.152H518.581V712.28H511.237V705.8H492.373V711.56H505.477V718.832H492.373V724.664H511.237V718.04H518.581V725.312H511.957V731.864H491.653ZM533.841 731.864V725.384H527.289V705.152H533.841V698.6H554.145V705.152H560.769V724.664H567.321V731.864H560.049V725.384H554.145V731.864H533.841ZM534.561 724.664H553.425V705.8H534.561V724.664ZM573.836 731.864V698.6H600.692V705.152H607.316V731.864H599.972V705.8H581.108V731.864H573.836ZM614.617 731.864V724.664H640.753V718.832H621.169V712.28H614.617V705.152H621.169V698.6H648.097V705.8H621.889V711.56H641.473V718.112H648.097V725.384H641.473V731.864H614.617ZM661.95 731.864V725.384H655.398V705.152H661.95V698.6H682.254V705.152H688.878V712.28H681.534V705.8H662.67V711.56H675.774V718.832H662.67V724.664H681.534V718.04H688.878V725.312H682.254V731.864H661.95Z" fill="#FFD063"/>
</g>
<rect x="10" y="10" width="1114" height="873" rx="60" stroke="black" stroke-width="20"/>
<defs>
<filter id="filter0_i_3_12" x="152" y="105" width="829" height="529" filterUnits="userSpaceOnUse" color-interpolation-filters="sRGB">
<feFlood flood-opacity="0" result="BackgroundImageFix"/>
<feBlend mode="normal" in="SourceGraphic" in2="BackgroundImageFix" result="shape"/>
<feColorMatrix in="SourceAlpha" type="matrix" values="0 0 0 0 0 0 0 0 0 0 0 0 0 0 0 0 0 0 127 0" result="hardAlpha"/>
<feMorphology radius="13" operator="erode" in="SourceAlpha" result="effect1_innerShadow_3_12"/>
<feOffset dy="13"/>
<feGaussianBlur stdDeviation="41.4"/>
<feComposite in2="hardAlpha" operator="arithmetic" k2="-1" k3="1"/>
<feColorMatrix type="matrix" values="0 0 0 0 0 0 0 0 0 0 0 0 0 0 0 0 0 0 0.25 0"/>
<feBlend mode="normal" in2="shape" result="effect1_innerShadow_3_12"/>
</filter>
<filter id="filter1_d_3_12" x="52" y="637" width="142" height="152" filterUnits="userSpaceOnUse" color-interpolation-filters="sRGB">
<feFlood flood-opacity="0" result="BackgroundImageFix"/>
<feColorMatrix in="SourceAlpha" type="matrix" values="0 0 0 0 0 0 0 0 0 0 0 0 0 0 0 0 0 0 127 0" result="hardAlpha"/>
<feOffset dy="10"/>
<feComposite in2="hardAlpha" operator="out"/>
<feColorMatrix type="matrix" values="0 0 0 0 0.521667 0 0 0 0 0.521667 0 0 0 0 0.521667 0 0 0 1 0"/>
<feBlend mode="normal" in2="BackgroundImageFix" result="effect1_dropShadow_3_12"/>
<feBlend mode="normal" in="SourceGraphic" in2="effect1_dropShadow_3_12" result="shape"/>
</filter>
<filter id="filter2_d_3_12" x="939" y="637" width="142" height="152" filterUnits="userSpaceOnUse" color-interpolation-filters="sRGB">
<feFlood flood-opacity="0" result="BackgroundImageFix"/>
<feColorMatrix in="SourceAlpha" type="matrix" values="0 0 0 0 0 0 0 0 0 0 0 0 0 0 0 0 0 0 127 0" result="hardAlpha"/>
<feOffset dy="10"/>
<feComposite in2="hardAlpha" operator="out"/>
<feColorMatrix type="matrix" values="0 0 0 0 0.521667 0 0 0 0 0.521667 0 0 0 0 0.521667 0 0 0 1 0"/>
<feBlend mode="normal" in2="BackgroundImageFix" result="effect1_dropShadow_3_12"/>
<feBlend mode="normal" in="SourceGraphic" in2="effect1_dropShadow_3_12" result="shape"/>
</filter>
<clipPath id="clip0_3_12">
<rect x="20" y="20" width="1094" height="853" rx="50" fill="white"/>
</clipPath>
</defs>
</svg>
